<?xml version="1.0" encoding="utf-8"?>
<!-- Generator: Adobe Illustrator 27.0.0, SVG Export Plug-In . SVG Version: 6.00 Build 0)  -->
<svg version="1.1" id="Layer_1" xmlns="http://www.w3.org/2000/svg" xmlns:xlink="http://www.w3.org/1999/xlink" x="0px" y="0px"
	 viewBox="0 0 32 32" style="enable-background:new 0 0 32 32;" xml:space="preserve">
<style type="text/css">
	.st0{fill:#15E5E5;}
	.st1{fill:#5E8B8E;}
</style>
<path class="st0" d="M13.9,19.79c0.15,0.58,0.32,1.12,0.56,1.64c0.33,0.71,0.73,1.38,1.25,1.98c0.13,0.15,0.11,0.23-0.03,0.35
	c-2.43,2.12-5.21,2.77-8.25,1.73C4.42,24.46,2.62,22.28,2,19.14c-0.09-0.44-0.11-0.88-0.11-1.33c0-4.28,0-8.56,0-12.83
	c0-0.34,0-0.34,0.35-0.3c2.14,0.26,3.54,1.84,3.55,4c0.01,3.04-0.01,6.08,0.01,9.12c0.01,1.64,0.76,2.9,2.18,3.72
	c2.01,1.16,4.59,0.47,5.79-1.52C13.8,19.94,13.84,19.88,13.9,19.79z"/>
<path class="st1" d="M28.65,15.72c-4.09,0.27-2.01-3.06-2.01-3.06c-0.95-0.75-0.83-1.65-0.63-2.2c-1.86-0.87-4.04-1.06-6.12-0.32
	c-0.55,0.19-1.07,0.44-1.61,0.75c0-0.72,0-1.4,0-2.08c0-0.31-0.01-0.62-0.07-0.92c-0.35-1.8-1.74-3.04-3.59-3.21
	c-0.21-0.02-0.26,0.04-0.26,0.25c0.01,1.66,0.01,3.31,0,4.97c0,0.17,0.06,0.25,0.2,0.34c1.56,0.91,2.74,2.18,3.53,3.8
	c0.28,0.57,0.48,1.17,0.64,1.79c0.02-0.01,0.03-0.01,0.04-0.01c0.04-0.06,0.08-0.12,0.12-0.18c0.99-1.5,2.39-2.2,4.18-2.02
	c2.54,0.26,4.29,2.8,3.64,5.27c-0.56,2.13-2.57,3.46-4.78,3.16c-2.07-0.28-3.69-2.11-3.66-4.15c0.01-0.42-0.03-0.84-0.09-1.25
	c-0.81-5.35-6.56-8.46-11.49-6.22c-0.16,0.07-0.23,0.16-0.23,0.34c0.01,0.86,0,1.71,0,2.57c0,0.7,0,1.4,0,2.16
	c1.12-1.55,2.76-2.05,4.17-1.89c2.04,0.24,3.73,2.12,3.71,4.17c-0.01,1.28,0.27,2.49,0.83,3.63c1.65,3.32,5.29,5.11,8.95,4.4
	c3.91-0.76,6.62-4.19,6.6-8.04C28.83,18.01,28.65,15.72,28.65,15.72z"/>
</svg>
