<?xml version="1.0" encoding="utf-8"?>
<!-- Generator: Adobe Illustrator 27.0.0, SVG Export Plug-In . SVG Version: 6.00 Build 0)  -->
<svg version="1.1" id="Layer_1" xmlns="http://www.w3.org/2000/svg" xmlns:xlink="http://www.w3.org/1999/xlink" x="0px" y="0px"
	 viewBox="0 0 205.4 76.7" style="enable-background:new 0 0 205.4 76.7;" xml:space="preserve">
<style type="text/css">
	* {fill:#fff;}
</style>
<path class="" d="M54.4,20.1l-1.7,2.6c-0.2,0.3-0.7,0.6-1,0.6l-36.2-0.1c-0.4,0-0.5-0.2-0.3-0.5l2.1-2.7c0.2-0.3,0.7-0.5,1.1-0.5
	h35.7C54.5,19.5,54.6,19.8,54.4,20.1z M48.9,28.7H3.3c-0.4,0-0.9,0.2-1.1,0.5l-2.1,2.7c-0.2,0.3-0.1,0.5,0.3,0.5l47.3-0.1
	c0.4,0,0.8-0.2,0.9-0.6l0.8-2.4C49.5,29,49.3,28.7,48.9,28.7z M46.7,37.9h-20c-0.4,0-0.8,0.3-1,0.6L24.3,41
	c-0.2,0.3-0.1,0.6,0.3,0.6l21.8,0.1c0.3,0,0.7-0.3,0.7-0.7l0.2-2.4C47.3,38.2,47.1,37.9,46.7,37.9z M193.5,63
	c-6.6,6.7-14.7,10.9-24,12.8c-2.7,0.5-5.4,0.6-8,0.9c-9.1-0.2-17.4-2.8-24.4-8.8c-4.93-4.26-8.31-9.5-10-15.59
	c-1.17,2.37-2.57,4.63-4.2,6.79c-7.2,9.5-16.6,15.4-28.5,17c-9.8,1.3-18.9-0.6-26.9-6.6c-7.4-5.6-11.6-13-12.7-22.2
	c-1.3-10.9,1.9-20.7,8.5-29.3c7.1-9.3,16.5-15.2,28-17.3c9.4-1.7,18.4-0.6,26.5,4.9c5.3,3.5,9.1,8.3,11.6,14.1
	c0.6,0.9,0.2,1.4-1,1.7c-6.3,1.6-10.6,2.8-16.8,4.4c-1.5,0.4-1.6,0.5-2.9-1c-1.5-1.7-2.6-2.8-4.7-3.8c-6.3-3.1-12.4-2.2-18.1,1.5
	c-6.8,4.4-10.3,10.9-10.2,19c0.1,8,5.6,14.6,13.5,15.7c6.8,0.9,12.5-1.5,17-6.6c0.9-1.1,1.7-2.3,2.7-3.7c-3.6,0-8.1,0-19.3,0
	c-2.1,0-2.6-1.3-1.9-3c1.3-3.1,3.7-8.3,5.1-10.9c0.3-0.6,1-1.6,2.5-1.6c4.55,0,20.03,0,32.19,0c1.45-4.58,3.78-8.91,6.91-13
	c7.3-9.6,16.1-14.6,28-16.7c10.2-1.8,19.8-0.8,28.5,5.1c7.9,5.4,12.8,12.7,14.1,22.3C206.7,42.6,202.8,53.6,193.5,63z M185.3,36.3
	c-0.1-1.3-0.1-2.3-0.3-3.3c-1.8-9.9-10.9-15.5-20.4-13.3c-9.3,2.1-15.3,8-17.5,17.4c-1.8,7.8,2,15.7,9.2,18.9
	c5.5,2.4,11,2.1,16.3-0.6C180.5,51.3,184.8,44.9,185.3,36.3z"/>
</svg>
