<?xml version="1.0" encoding="utf-8"?>
<!-- Generator: Adobe Illustrator 27.0.0, SVG Export Plug-In . SVG Version: 6.00 Build 0)  -->
<svg version="1.1" id="Layer_1" xmlns="http://www.w3.org/2000/svg" xmlns:xlink="http://www.w3.org/1999/xlink" x="0px" y="0px"
	 viewBox="0 0 32 8" style="enable-background:new 0 0 32 8;" xml:space="preserve">
<style type="text/css">
	* {fill:#fff;}
</style>
<path class="" d="M15.08,3.12c0.13,0.09,0.17,0.23,0.1,0.38c-0.14,0.29-0.27,0.57-0.41,0.86c-0.22,0.46-0.44,0.91-0.66,1.37
	c-0.11,0.23-0.36,0.3-0.58,0.18c-0.07-0.04-0.12-0.1-0.16-0.17C13.01,5,12.65,4.26,12.29,3.51c-0.1-0.21,0.04-0.44,0.28-0.46
	c0.18-0.02,0.3,0.05,0.38,0.22c0.26,0.56,0.51,1.12,0.77,1.68c0.01,0.03,0.01,0.06,0.04,0.08c0.27-0.59,0.54-1.18,0.8-1.76
	C14.66,3.05,14.88,2.99,15.08,3.12z M9.75,1.87C9.6,1.93,9.57,2.06,9.57,2.2c0,0.99,0,1.97,0,2.96c0,0.16,0,0.32,0,0.48
	c0,0.15,0.08,0.27,0.22,0.31C10,6.02,10.31,5.94,10.3,5.59c-0.01-0.56,0-1.13,0-1.69c0-0.47,0-0.95,0.01-1.42c0-0.12,0-0.23,0-0.35
	c-0.01-0.1-0.04-0.18-0.12-0.23C10.05,1.81,9.9,1.8,9.75,1.87z M22.49,3.19c-0.06,0.15-0.11,0.31-0.17,0.46
	c-0.14,0.39-0.29,0.79-0.44,1.18c-0.03-0.03-0.03-0.05-0.04-0.08c-0.21-0.52-0.41-1.03-0.61-1.54c-0.05-0.12-0.12-0.22-0.24-0.27
	c-0.21-0.09-0.45,0.01-0.54,0.24c-0.12,0.3-0.24,0.61-0.36,0.91c-0.1,0.24-0.19,0.47-0.29,0.73c-0.02-0.05-0.03-0.08-0.05-0.08
	c-0.19-0.52-0.39-1.03-0.58-1.54c-0.05-0.11-0.11-0.2-0.22-0.25c-0.16-0.07-0.35-0.03-0.48,0.1c-0.12,0.12-0.14,0.26-0.07,0.43
	c0.32,0.76,0.63,1.52,0.95,2.28c0.08,0.19,0.24,0.29,0.43,0.29s0.34-0.11,0.42-0.3c0.1-0.27,0.21-0.55,0.32-0.82
	c0.09-0.23,0.18-0.47,0.28-0.71c0.02,0.04,0.03,0.06,0.04,0.09c0.2,0.48,0.39,0.96,0.59,1.44c0.07,0.19,0.21,0.29,0.41,0.3
	c0.2,0.01,0.35-0.1,0.43-0.29c0.02-0.05,0.03-0.09,0.05-0.13c0.3-0.71,0.6-1.43,0.9-2.14c0.06-0.15,0.06-0.29-0.05-0.42
	C22.95,2.82,22.61,2.89,22.49,3.19z M11.24,3.09c-0.14,0.07-0.17,0.19-0.17,0.33c0,0.37,0,0.73,0,1.09c0,0.33,0,0.66,0,0.99
	c0,0.06,0,0.12,0,0.18c0.01,0.13,0.08,0.22,0.21,0.27c0.28,0.1,0.52-0.07,0.52-0.36c0-0.67,0-1.33,0-1.99c0-0.08,0-0.16,0-0.24
	c0-0.1-0.04-0.19-0.13-0.25C11.53,3.02,11.39,3.02,11.24,3.09z M27.21,3.16c-0.04-0.15-0.15-0.25-0.3-0.26
	c-0.17-0.01-0.33,0.01-0.49,0.07c-0.16,0.06-0.31,0.16-0.43,0.32c-0.01-0.15-0.05-0.26-0.17-0.33c-0.14-0.09-0.3-0.09-0.45-0.01
	c-0.15,0.07-0.2,0.2-0.2,0.36c0,0.76,0,1.53,0,2.29c0,0.3,0.24,0.48,0.53,0.42c0.21-0.05,0.33-0.2,0.33-0.42
	c0-0.43-0.01-0.87,0-1.31c0.01-0.32,0.21-0.54,0.52-0.6c0.09-0.01,0.19-0.02,0.29-0.03C27.14,3.63,27.27,3.44,27.21,3.16z
	 M7.42,3.27c0.04,0.25,0.06,0.5,0.03,0.76C7.4,4.45,7.31,4.85,7.06,5.21c-0.12,0.17-0.29,0.2-0.46,0.1
	c-0.04-0.05-0.09-0.1-0.13-0.16c0,0.32,0,0.64,0,0.97c0,0.23-0.18,0.4-0.4,0.4C5.87,6.51,5.7,6.35,5.7,6.15c0-0.22,0-0.44,0-0.66
	c0-0.1,0-0.19-0.01-0.29C5.68,5.21,5.67,5.23,5.65,5.24c-0.16,0.17-0.34,0.17-0.5,0C5.14,5.22,5.12,5.19,5.1,5.17
	c0,0.5,0,1.01,0,1.51c0,0.18-0.09,0.31-0.25,0.38C4.68,7.14,4.53,7.12,4.39,7C4.28,6.91,4.24,6.79,4.24,6.65c0-0.43,0-0.87,0-1.3
	C4.23,5.33,4.23,5.31,4.23,5.29c-0.2,0.12-0.34,0.1-0.49-0.09C3.71,5.16,3.68,5.13,3.65,5.09c0,0.28,0,0.55,0,0.83
	c0,0.22-0.15,0.38-0.36,0.4c-0.21,0.02-0.4-0.15-0.41-0.36c-0.01-0.17,0-0.33,0-0.5h0.01C2.9,5.44,2.91,5.43,2.92,5.41
	C2.9,5.43,2.89,5.45,2.87,5.45c0,0,0,0,0-0.01c0,0-0.01,0.01-0.01,0.01c0-0.06-0.01-0.11-0.01-0.18c-0.09,0.08-0.19,0.11-0.3,0.08
	C2.47,5.33,2.41,5.28,2.36,5.2C2.19,4.88,2.07,4.53,2.02,4.17C1.92,3.4,2.09,2.68,2.54,2.05c0.43-0.61,1.02-1,1.77-1.12
	c0.83-0.13,1.57,0.1,2.2,0.66C6.75,1.8,6.94,2.04,7.09,2.32C7.1,2.34,7.11,2.37,7.12,2.39C7.27,2.66,7.37,2.96,7.42,3.27z
	 M4.25,5.28C4.25,5.28,4.25,5.28,4.25,5.28c0,0.01,0,0.01,0,0.02C4.25,5.3,4.25,5.29,4.25,5.28z M5.81,3.8
	C5.9,3.59,5.93,3.38,5.93,3.18c0.01-0.37-0.1-0.69-0.31-0.98c-0.54-0.74-1.52-0.74-2.07,0C3.24,2.61,3.17,3.07,3.28,3.57
	c0.09,0.41,0.34,0.7,0.74,0.82c0.39,0.12,0.77,0.12,1.15-0.01C5.47,4.28,5.68,4.09,5.81,3.8z M24.14,2.9
	c-0.26-0.01-0.44,0.11-0.47,0.34c-0.01,0.03-0.01,0.07-0.01,0.11c0,0.75,0,1.49,0,2.23c0,0.13,0.02,0.26,0.13,0.35
	c0.15,0.12,0.33,0.13,0.5,0.06c0.17-0.07,0.23-0.21,0.23-0.38c0-0.38,0-0.76,0-1.14c0-0.4,0-0.79,0-1.18
	C24.51,3.07,24.36,2.91,24.14,2.9z M11.64,1.8c-0.14-0.05-0.28-0.05-0.41,0c-0.1,0.04-0.18,0.12-0.21,0.23
	c-0.07,0.25,0.07,0.46,0.33,0.5c0.3,0.04,0.52-0.12,0.52-0.38C11.87,1.99,11.79,1.86,11.64,1.8z M24.1,1.57
	c-0.3,0-0.5,0.18-0.5,0.46c0,0.28,0.19,0.46,0.49,0.46c0.29,0,0.49-0.18,0.49-0.46C24.58,1.76,24.38,1.58,24.1,1.57z M16.19,4.72
	c0.01,0.05,0.02,0.1,0.03,0.15c0.08,0.36,0.32,0.54,0.69,0.56c0.27,0.02,0.51-0.07,0.74-0.18c0.04-0.02,0.07-0.04,0.11-0.05
	c0.09-0.04,0.19-0.06,0.27,0.02c0.08,0.08,0.1,0.18,0.07,0.29c-0.03,0.11-0.1,0.17-0.2,0.23c-0.21,0.12-0.44,0.19-0.68,0.23
	c-0.32,0.05-0.64,0.02-0.95-0.11c-0.48-0.21-0.73-0.6-0.79-1.11c-0.04-0.32-0.01-0.63,0.12-0.92c0.23-0.51,0.63-0.76,1.18-0.79
	c0.32-0.02,0.62,0.05,0.88,0.25c0.29,0.24,0.42,0.56,0.46,0.92c0.01,0.07,0.02,0.15,0.01,0.23c-0.01,0.15-0.08,0.21-0.23,0.21
	c-0.28,0-0.55,0-0.82,0c-0.28,0-0.55,0-0.83,0C16.19,4.65,16.18,4.67,16.19,4.72z M16.19,4.2c-0.01,0.05,0,0.07,0.06,0.06
	c0.2,0,0.4,0,0.6,0c0.16,0,0.33,0,0.49,0c0.17,0,0.17,0,0.15-0.17C17.45,3.8,17.27,3.6,17,3.56c-0.32-0.05-0.59,0.08-0.72,0.35
	C16.23,4,16.21,4.1,16.19,4.2z M4.35,2.09c-0.2-0.06-0.37,0.01-0.5,0.16c-0.09,0.11-0.13,0.24-0.13,0.4c0,0.03,0,0.09,0.02,0.14
	c0.06,0.23,0.25,0.39,0.47,0.4c0.21,0,0.41-0.14,0.48-0.37c0.03-0.1,0.04-0.2,0.02-0.3C4.67,2.31,4.56,2.15,4.35,2.09z M29.95,5.25
	c0.07,0.18,0.02,0.36-0.15,0.48c-0.18,0.13-0.39,0.2-0.6,0.25c-0.42,0.1-0.84,0.08-1.23-0.12c-0.43-0.22-0.67-0.59-0.74-1.06
	c-0.06-0.37-0.03-0.73,0.12-1.08c0.26-0.6,0.86-0.9,1.49-0.83c0.64,0.07,1.06,0.56,1.14,1.19c0.01,0.1,0.01,0.21,0.01,0.32
	c0,0.17-0.1,0.27-0.27,0.27c-0.26,0-0.53,0-0.79,0c-0.27,0-0.53,0-0.8,0c-0.05,0-0.07,0.02-0.06,0.07c0.01,0.02,0.01,0.05,0.02,0.07
	c0.09,0.4,0.36,0.56,0.81,0.52c0.19-0.01,0.37-0.1,0.54-0.18c0.05-0.02,0.11-0.05,0.17-0.07C29.76,5.04,29.89,5.1,29.95,5.25z
	 M28.93,3.58c-0.33-0.14-0.68,0.01-0.8,0.34c-0.02,0.06-0.03,0.12-0.05,0.17c-0.02,0.05,0,0.06,0.05,0.06c0.18,0,0.35,0,0.53,0
	c0.15,0,0.3,0,0.45,0c0.16,0,0.16,0,0.13-0.15C29.2,3.81,29.12,3.66,28.93,3.58z"/>
</svg>
